<svg xmlns="http://www.w3.org/2000/svg" width="256" height="347" viewBox="0 0 256 347"><defs><style>.a{fill:none;opacity:0;}.b{fill:#4a4a4a;}.c{fill:#ed4c9a;}.d{fill:#fc0;}.e{fill:#7cbd6d;}</style></defs><rect class="a" width="256" height="256" rx="128"/><g transform="translate(23 23)"><path class="b" d="M97.1,78.964a1.994,1.994,0,0,0-.71,3.287L107.041,92.9a10.156,10.156,0,0,1,.423,14.049,10,10,0,0,1-14.4.262L82.25,96.392a1.994,1.994,0,0,0-3.287.71,30,30,0,0,0,36.008,39.083L156,177.214,177.214,156l-41.029-41.029A30,30,0,0,0,97.1,78.964Z" transform="translate(-61.607 -61.607)"/><circle class="b" cx="15" cy="15" r="15" transform="translate(90 90)"/><path class="b" d="M150.615,46a104.831,104.831,0,0,0-32.559,5.278,2,2,0,0,0-.535,3.535,45.015,45.015,0,0,1,16.359,21.38,1.983,1.983,0,0,0,2.247,1.272,75.217,75.217,0,0,1,67.361,19.963A75,75,0,1,1,76,151a75.733,75.733,0,0,1,1.466-14.875,1.983,1.983,0,0,0-1.273-2.245,45.012,45.012,0,0,1-21.38-16.359,2,2,0,0,0-3.535.535A104.832,104.832,0,0,0,46,150.615C45.8,207.3,91.022,254.2,147.683,255.949A105,105,0,0,0,255.949,147.683C254.2,91.022,207.3,45.8,150.615,46Z" transform="translate(-46 -46)"/></g><g transform="translate(23.204 287.084)"><g transform="translate(0 0.085)"><path class="b" d="M72.469,584.165a17.249,17.249,0,0,0-5.464-.943q-2.988,0-4.108,1.238t-1.12,4.383v4.009H70.15v8.057H61.777v33.175H51.636V600.91H46.408v-8.057h5.228v-4.009q0-7.664,3.793-11.084t11.419-3.42a31.939,31.939,0,0,1,7.586.982Zm14.9-2.555q0,2.87-1.415,4.01a6.817,6.817,0,0,1-4.324,1.14q-3.224,0-4.382-1.337a5.641,5.641,0,0,1-1.16-3.813,5.274,5.274,0,0,1,1.258-3.951q1.258-1.2,4.285-1.2a6.687,6.687,0,0,1,4.4,1.159Q87.366,578.78,87.366,581.61ZM76.635,634.085V592.852H86.776v41.232Z" transform="translate(-46.408 -574.339)"/><path class="b" d="M169.045,652.6,160.87,639.47,152.3,652.6H141.059l14.229-20.361-13.994-20.872h11.832l8.215,13.05,8.451-13.05h11.2L166.8,631.688,181.073,652.6Z" transform="translate(-93.733 -592.852)"/></g><g transform="translate(104.796 35.916)"><path class="c" d="M268,670a12,12,0,1,0-12-12,12,12,0,0,0,12,12" transform="translate(-256 -646)"/></g><g transform="translate(145.277 35.916)"><path class="d" d="M348.962,670a12,12,0,1,0-12-12,12,12,0,0,0,12,12" transform="translate(-336.962 -646)"/></g><g transform="translate(185.758 35.916)"><path class="e" d="M429.923,670a12,12,0,1,0-12-12,12,12,0,0,0,12,12" transform="translate(-417.923 -646)"/></g><g transform="translate(108.371 0.51)"><g transform="translate(0)"><path class="b" d="M280.921,583.344q0,4.394-2.065,6.521t-6.706,2.127h-4.043v7.523H263.15V575.188h9.141a9.531,9.531,0,0,1,6.38,1.924Q280.922,579.038,280.921,583.344Zm-5.115.035a3.6,3.6,0,0,0-1.134-2.97q-1.133-.914-4.087-.914h-2.478v8.174h2.021a12.692,12.692,0,0,0,3.771-.378,2.493,2.493,0,0,0,1.477-1.275A6.309,6.309,0,0,0,275.807,583.379Z" transform="translate(-263.15 -575.188)"/></g></g><g transform="translate(147.993 0.51)"><path class="b" d="M361.553,587.352a17.289,17.289,0,0,1-1.213,7.066,7.739,7.739,0,0,1-3.656,3.885,15.772,15.772,0,0,1-6.873,1.213h-7.418V575.188h7.348a15.69,15.69,0,0,1,6.846,1.248,7.833,7.833,0,0,1,3.753,3.893A17.046,17.046,0,0,1,361.553,587.352Zm-5.116-.036a13.337,13.337,0,0,0-.624-4.719,3.953,3.953,0,0,0-2.118-2.206,11.32,11.32,0,0,0-4.43-.668h-1.9V594.98h1.9a11.124,11.124,0,0,0,4.421-.677,4.016,4.016,0,0,0,2.118-2.259A13.416,13.416,0,0,0,356.438,587.316Z" transform="translate(-342.393 -575.188)"/></g><g transform="translate(186.937)"><path class="b" d="M441.3,604.508a14.261,14.261,0,0,1-2.074.4,19.868,19.868,0,0,1-2.812.211q-7.014,0-8.1-5.8a8.451,8.451,0,0,1-5.889-3.6q-2.145-3.041-2.144-8.877,0-6.083,2.54-9.378t7.972-3.3q5.4,0,7.919,3.313t2.522,9.361q0,10.74-7.523,12.41a2.111,2.111,0,0,0,.756,1.38,3.684,3.684,0,0,0,2.092.43,11.811,11.811,0,0,0,1.837-.167,14.708,14.708,0,0,0,1.766-.378Zm-5.185-17.666q0-4.325-1.221-6.3a4.443,4.443,0,0,0-4.1-1.977,4.506,4.506,0,0,0-4.192,1.977q-1.2,1.978-1.2,6.3t1.221,6.3a4.514,4.514,0,0,0,4.175,1.977,4.41,4.41,0,0,0,4.14-2Q436.119,591.114,436.119,586.842Z" transform="translate(-420.281 -574.168)"/></g></g></svg>