<svg xmlns="http://www.w3.org/2000/svg" width="160" height="229.316" viewBox="0 0 160 229.316"><defs><style>.a{fill:#4a4a4a;}.b{fill:#ee4d9b;}.c{fill:#fff200;}.d{fill:#98c13d;}</style></defs><g transform="translate(-109.747 -92)"><path class="a" d="M340.52,1289.46h14.014v3.943h-8.319v3.2h7.107v3.7h-7.11v7.5H340.52Z" transform="translate(-196.491 -1019.575)"/><path class="a" d="M445,1289.46h5.681V1307.8H445Z" transform="translate(-285.451 -1019.575)"/><path class="a" d="M486.845,1289.46h6.239l3.247,5.645,3.16-5.645h6.181l-5.71,8.885,6.248,9.46h-6.364l-3.623-5.893L492.6,1307.8h-6.33l6.328-9.559Z" transform="translate(-320.59 -1019.575)"/><path class="a" d="M658.573,1296.141a25.825,25.825,0,0,1,4.28-.333,7.1,7.1,0,0,1,4.844,1.435,4.652,4.652,0,0,1,1.512,3.614,5.066,5.066,0,0,1-1.337,3.69,7.16,7.16,0,0,1-5.28,1.9,7.673,7.673,0,0,1-1.795-.149v6.92H658.57Zm2.228,8.329a7.476,7.476,0,0,0,1.845.18c2.69,0,4.332-1.307,4.332-3.69,0-2.28-1.615-3.382-4.075-3.382a9.353,9.353,0,0,0-2.1.18Z" transform="translate(-467.294 -1024.98)"/><path class="a" d="M745.36,1296.159a31.883,31.883,0,0,1,4.742-.359c3.2,0,5.484.743,7,2.153a7.955,7.955,0,0,1,2.435,6.2,9.135,9.135,0,0,1-2.485,6.714c-1.615,1.615-4.28,2.485-7.637,2.485a35.957,35.957,0,0,1-4.05-.205Zm2.228,15.274a14.072,14.072,0,0,0,2.255.128c4.767,0,7.355-2.665,7.355-7.329.025-4.075-2.28-6.663-7-6.663a12.662,12.662,0,0,0-2.615.23Z" transform="translate(-541.192 -1024.973)"/><path class="a" d="M863.624,1314.833c-2.332-.615-4.613-1.307-6.612-2a3.307,3.307,0,0,0-1.05-.257c-4.1-.149-7.612-3.178-7.612-8.739,0-5.535,3.383-9.1,8.047-9.1,4.69,0,7.74,3.64,7.74,8.739,0,4.434-2.05,7.279-4.92,8.277v.1c1.717.435,3.588.845,5.051,1.1Zm-1.845-11.25c0-3.46-1.795-7.022-5.459-7.022-3.767,0-5.612,3.485-5.587,7.227-.025,3.665,2,6.97,5.485,6.97,3.562,0,5.562-3.225,5.562-7.172Z" transform="translate(-628.882 -1024.071)"/><path class="b" d="M331.527,1549.854a7.487,7.487,0,1,0-7.487-7.487,7.487,7.487,0,0,0,7.487,7.487" transform="translate(-182.459 -1228.538)"/><path class="c" d="M603.087,1548.734a7.487,7.487,0,1,0-7.487-7.487,7.487,7.487,0,0,0,7.487,7.487" transform="translate(-413.679 -1227.584)"/><path class="d" d="M878.647,1548.734a7.487,7.487,0,1,0-7.487-7.487,7.487,7.487,0,0,0,7.487,7.487" transform="translate(-648.304 -1227.584)"/><path class="a" d="M268.817,157.193l-.058-.037a.209.209,0,0,0-.048-.034l-.022-.015-.024-.013-.664-.686c.1.1.192.189.284.276l.053.051.046.043.034.033.4.382M214.2,92h-.105c-.67,0-1.22.021-1.732.065h-.242l-.149.015h-.143c-.227.025-.459.055-.729.091-.108.015-.215.033-.319.052h-.028a.844.844,0,0,0-.149.025h-.056l-.068.01-.178.031a.4.4,0,0,0-.074.021l-.1.019h-.016a.256.256,0,0,0-.046.01l-.079.018-.028.009c-.282.058-.585.129-.957.221h-.03l-.034.009-.058.015h-.015a.234.234,0,0,0-.051.01l-.059.015-.052.013c-.015,0-.016,0-.016.009a.429.429,0,0,0-.12.037.579.579,0,0,0-.181.059.432.432,0,0,0-.086.033h-.03l-.053.012H208.2l-.048.015-.085.027-.049.015-.162.03-.16.043a.661.661,0,0,0-.456.456.643.643,0,0,0,0,.351h0a.232.232,0,0,0-.171.071.282.282,0,0,0-.082.2.275.275,0,0,0,.082.2,1.386,1.386,0,0,1,.11.117c.056.064.1.113.149.16l.007.009.028.031.045.048.107.114.107.116.033.036.01.012a1.4,1.4,0,0,0,.149.149,1.331,1.331,0,0,1,.159.169l.043.046.015.016.013.013.025.027.082.091.028.031c.141.156.29.318.446.48q.348.368.692.743l.117.126.437.472.241.258.055.059.149.157.18.2.051.056.043.048.042.046.119.131.211.23.212.23.891.97.163.175.285.307.055.061c.131.149.25.272.374.4s.22.227.328.343l.1.1.3.308.128.132.091.094c.212.221.425.446.64.66l.327.324.046.046c.105.1.208.208.31.313l.062.064c.074.074.149.149.224.22l.163.16c.052.051.105.1.16.149s.126.111.184.169l.1.1.046.046.184.184q.082.08.16.16l.028.028.055.055a.488.488,0,0,0,.074.058q.24.329.446.68a8.6,8.6,0,0,1,.486.967,8.774,8.774,0,0,1,.325.928q.039.134.071.269c.055.22.1.446.134.658v.019c.012.074.022.149.033.223l.012-.007-.009.033v.108c.022.2.039.407.048.622v.016c0,.174.007.339,0,.5v.379a.085.085,0,0,1,0,.013c0,.016,0,.031,0,.046v.04a1.791,1.791,0,0,1-.016.2v.117a1.679,1.679,0,0,1-.025.209c-.015.11-.031.215-.051.321v.045c-.042.23-.094.462-.149.689-.015.055-.03.108-.046.162v.079c-.025.082-.051.16-.077.238l-.01.031v.076l-.007.021v.042L217.8,112v.031a.169.169,0,0,0-.01.024l-.007.021v.013l-.012.033-.01.028-.015.037-.013.033-.012.031-.007.018v.027l-.007.016-.012.03v.022c-.045.105-.094.214-.149.325l-.009.018v.013l-.012.025-.009.019v.01l-.012.024-.009.019-.009.016-.01.022v.01l-.012.024-.012.024-.015.03v.045l-.01.019-.019.036-.031.056-.073.132q-.076.134-.156.263c-.14.223-.3.446-.446.655l-.021.027-.012.016c-.1.123-.192.239-.279.342l-.034.039-.01.012-.01.012-.013.015c-.074.086-.163.181-.263.284l-.019.019-.031.033-.01.01-.013.015-.021.021-.027.027-.028.028-.019.019-.022.022-.012.012-.013.012-.025.024-.021.019-.03.028-.033.031-.019.018c-.086.08-.186.166-.3.258l-.046.039h-.018l-.021.016-.162.129-.007.007c-.1.076-.214.157-.349.253s-.307.2-.468.3-.281.16-.416.232l-.131.067-.024.012-.016.007-.015.007h-.027c-.123.058-.242.113-.364.165h-.012l-.03.012-.024.01a8.615,8.615,0,0,1-.949.324,8.067,8.067,0,0,1-1.077.22c-.187.025-.371.043-.55.055s-.364.018-.553.019h0a2.205,2.205,0,0,1-.667.021c-.128-.01-.263-.025-.4-.043-.108-.015-.207-.03-.306-.048h-.022l-.239-.046h-.082c-.131-.028-.266-.061-.4-.1H208a8.366,8.366,0,0,1-.9-.306h-.031l-.037-.016h-.013a8.538,8.538,0,0,1-.81-.392l-.018-.01-.111-.064-.03-.016-.016-.01-.043-.025c-.181-.108-.364-.227-.547-.357-.089-.064-.177-.129-.264-.2h-.012c-.2-.157-.388-.319-.563-.481l-.022-.021-.031-.03-.015-.015-.062-.059-.027-.025-.085-.085h0a.016.016,0,0,0,.012,0l-.033-.039-.079-.079a1.337,1.337,0,0,1-.2-.264l-.009-.016v-.012l-.036-.03a.793.793,0,0,1-.132-.108l-.018-.021-.025-.03a1.487,1.487,0,0,1-.149-.181l-.033-.046-.058-.076-.058-.076-.022-.021a.384.384,0,0,1-.052-.049l-.009-.012c-.031-.037-.062-.074-.1-.11a3.4,3.4,0,0,1-.215-.269V113.6l-.007-.01-.048-.064-.013-.018-.007-.01-.03-.033-.03-.031c-.033-.036-.064-.071-.1-.108l-.079-.1-.028-.037-.009-.012-.012-.016-.012-.016-.009-.012-.163-.034-.012-.015-.031-.042v-.009l-.04-.056-.037-.051c-.083-.1-.172-.183-.266-.273a1.31,1.31,0,0,1-.2-.261c-.287-.313-.556-.594-.844-.9-.419-.437-.817-.845-1.337-1.374l-.046-.048-.245-.236q-.822-.842-1.646-1.679l-.437-.446-1.08-1.1-.7-.706-.149-.149-.027-.027c-.117-.116-.233-.233-.348-.354a.351.351,0,0,0-.254-.105.373.373,0,0,0-.257.1c-.012.027-.025.052-.039.076l-.024.037c-.01.016-.021.033-.03.049s-.009.037-.012,0h0c0,.058-.009.059-.015.062-.019.036-.036.07-.052.1l-.037.077-.03.067-.021.052-.01.024.016-.013a.078.078,0,0,0-.019.036v.022a.779.779,0,0,1-.03.092,1.878,1.878,0,0,1-.157.319.573.573,0,0,0-.01.058c-.013.085-.031.163-.043.221v.024a.259.259,0,0,1-.013.056v.077l-.027.107-.009.037a.594.594,0,0,0-.018.12.322.322,0,0,0-.036.079l-.009.022-.009.022a.3.3,0,0,0-.056.107l-.012.034-.012.034a.31.31,0,0,0-.04.086l-.043.141-.049.149-.037.1a1.65,1.65,0,0,0-.055.157l-.021.061c-.028.085-.056.168-.08.254-.016.053-.03.107-.042.16v.012a.336.336,0,0,0-.024.065l-.016.07-.016.068v.024l-.009.042-.01.043v.077l-.016.071-.01.043a.251.251,0,0,1-.013.048l-.015.062-.013.064a.389.389,0,0,0-.01.053c-.033.157-.064.318-.094.477l-.028.149-.058.31a.11.11,0,0,1-.009.036l-.015.088-.009.052a.178.178,0,0,0,0,.027l-.018.117v.012a.235.235,0,0,0-.009.036,1.035,1.035,0,0,1-.016.116v.053c-.015.077-.025.156-.037.238v.055c-.015.08-.024.149-.03.205v.1c-.018.125-.04.281-.052.432v.254a.448.448,0,0,1-.01.117.435.435,0,0,0,0,.052v.441a.483.483,0,0,0-.009.071v.137a.3.3,0,0,0,0,.034v.089a.545.545,0,0,0-.01.082v.126c0,.015,0,.03-.046.046v.013l.04.036c-.012.043.108.123.108.123v.052l-.131.059a.405.405,0,0,0,0,.056v.117a.405.405,0,0,0,0,.056v.107a.273.273,0,0,1-.009.067v.07a.923.923,0,0,0,0,.1v.357c0,.107.009.267,0,.419,0,.049,0,.1.149.149v.025c-.149.056-.141.113-.149.171v.059a.446.446,0,0,0-.036.2.515.515,0,0,0,.009.117.372.372,0,0,0,0,.053v.1a.437.437,0,0,0,0,.07,1.515,1.515,0,0,0,.015.163v.031c.03.285.064.545.1.795l.03.177.01.064V117l.016.092.037.226a.189.189,0,0,0,.012.08.707.707,0,0,1,.019.113v.089l.007.046a.182.182,0,0,0,0,.024.47.47,0,0,0,.009.059l.01.056c.074.38.162.774.261,1.166v.019a.222.222,0,0,0,.015.058c.006.021.016.065.024.092a.337.337,0,0,0,.015.073l.019.074a.419.419,0,0,0,.016.089c.089.333.192.679.312,1.058a.285.285,0,0,0,.015.051q.045.137.092.273a.294.294,0,0,0,.012.039l.028.08.019.055v.019l.009.027.04.108a.074.074,0,0,0,.012.03c.071.193.137.365.2.524l.045.11.007.019c.061.149.137.342.22.515l.013.025.064.141v.013c.018.039.036.077.056.116l.012.022.016.033.043.091a.3.3,0,0,0,.027.048c.186.389.391.772.55,1.062l.022.039.089.163.01.018.01.019.009.016c.2.359.361.643.514.891,0,.012.013.025.021.037l.027.043.043.068.015.027.07.108.016.028.062.1c0,.013.015.027.024.039.212.328.5.759.8,1.171l.019.03c.3.382.594.752.891,1.1v.016l.157.183.052.062c.119.135.256.287.431.478l.22.235.1.1a.582.582,0,0,0,.11.149l.031.031.055.055.013.013.015.015.089.088.025.027.046.045.046.045.024.024c.282.27.594.551.92.833a.313.313,0,0,0,.034.033c.446.386.918.755,1.442,1.128a.515.515,0,0,0,.077.055l.114.08.022.015.091.062.04.027.021.013c.337.23.7.461,1.064.683.254.149.456.273.639.376.149.088.315.171.468.248l.033.019.039.019.074.039.031.016.056.028.055.028.033.019.051.027.034.018a.4.4,0,0,0,.058.034c.379.187.706.345,1,.48l.022.015a.654.654,0,0,0,.149.064l.308.129a.683.683,0,0,0,.149.064l.088.034.126.051c.149.064.3.117.411.157h.019l.123.043c.206.074.407.138.559.186l.034.01.105.033.025.007.034.01.058.018.1.03.031.009.474.137c.1.027.195.059.3.094h.016l.036.012a.535.535,0,0,0,.122.043l.07.018a.433.433,0,0,0,.089.028l.086.021a.6.6,0,0,0,.074.022l.056.013.043.01a.5.5,0,0,0,.062.018l.159.037.159.036h.016l.073.018.218.046h.027c.149.03.319.065.5.1h.073l.359.053.1.013.1.013c.195.025.383.048.57.068.239.025.465.037.713.049a.657.657,0,0,0,.134.013h.064c.034,0,.071.009.107.012.149.01.3.019.446.025h.679a.042.042,0,0,1,.04.018h.088a1.388,1.388,0,0,1,.253-.024h.389c.446-.01.857-.022,1.27-.067h.267l.149-.015h.018c.392-.04.792-.091,1.188-.149a.72.72,0,0,0,.178-.027h.019a.651.651,0,0,0,.149-.025l.149-.025h.027l.086-.015h.036l.137-.027.042-.01c.254-.049.637-.125,1.032-.223h.012l.062-.016.056-.012.056-.015.043-.01.062-.015c.465-.12.949-.269,1.486-.455l.034-.012c.266-.094.53-.193.813-.3,1.588,1.613,3.212,3.255,4.78,4.841l.009.009.033.033,1.278,1.292.829.839,1.7,1.723,3.307,3.345L240.8,152.7l3.252,3.29,1.226,1.24.022.012.013.007.275.276.14.141.559.564.254.258a.2.2,0,0,0,.042.07c.034.039.071.076.108.111l.043.042.184.183.278.278.071.071.692.692.762.762.184.186.172.174h-.009l1.444,1.472,2.693,2.724.847.857.816.824.01.01.169.278q.891.909,1.8,1.818v.012c.039.061.077.122.117.181a9.606,9.606,0,0,0,.688.909,8.124,8.124,0,0,0,.8.82,8.505,8.505,0,0,0,.781.608.184.184,0,0,0,.11.034l.077.056c.073.052.149.1.217.149.119.08.247.16.394.245a7.635,7.635,0,0,0,.743.383c.29.128.544.229.775.309s.474.149.764.223l.028.009c.3.068.616.128.989.178.288.039.946.1.946.1h.064c.209,0,.429-.012.655-.031.1-.009.2-.021.3-.033l.129-.013.129-.013a.268.268,0,0,0,.08-.01c.242-.034.446-.07.633-.114.232-.053.463-.119.712-.2a8.69,8.69,0,0,0,1.319-.564.015.015,0,0,0-.012,0h-.012a2,2,0,0,0,.358-.183l.033-.019c.11-.065.229-.141.377-.239.244-.162.5-.352.8-.594a8.529,8.529,0,0,0,1.337-1.405.282.282,0,0,0,.056-.071l.037-.051.015-.021.016-.022.013-.019a.421.421,0,0,0,.031-.042,8.593,8.593,0,0,0,.8-1.379,8.306,8.306,0,0,0,.547-1.588v-.027a8.9,8.9,0,0,0,.2-2.674,8.567,8.567,0,0,0-.608-2.629.32.32,0,0,0-.036-.085c-.085-.2-.175-.392-.266-.569a.121.121,0,0,0-.009-.018l-.088-.163v-.033a8.357,8.357,0,0,0-.677-1.04,8.251,8.251,0,0,0-.931-1.04l-.013-.012-.016-.013-.013-.012-.022-.019c-.117-.107-.207-.186-.3-.257l-.039-.033-.239-.192-.149-.16c-.137-.149-.275-.3-.413-.446l-.03-.031-.149-.165-.551-.594q-.327-.352-.655-.7l-.254-.27-.055-.059-.077-.083-.193-.209c-.131-.14-.263-.279-.4-.417l-.089-.094-.1-.105-.013-.015c-.435-.459-.871-.909-1.306-1.361q-.792-.82-1.581-1.641l-.015-.015-.009-.009-.105-.108c-1.04-1.087-2.228-2.32-3.391-3.512-1.909-1.959-3.748-3.828-5.294-5.4l-5.051-5.119-7.379-7.432-3.277-3.316-4.69-4.745-.056-.056-.028-.03a20.078,20.078,0,0,0,.79-2.294,20.95,20.95,0,0,0,.562-2.7V116.7c.007-.056.016-.114.024-.171a.124.124,0,0,0,0-.018c.03-.235.051-.446.085-.8v-.045l.009-.1a1.167,1.167,0,0,0,.015-.122c.016-.206.03-.391.04-.576v-.045c.019-.446.03-.851.03-1.22v-.153a.688.688,0,0,0,0-.082v-.31a.775.775,0,0,0,0-.089c-.016-.355-.042-.712-.077-1.09v-.056l-.027-.272v-.022l-.021-.159c-.009-.074-.018-.149-.028-.224l-.016-.122v-.046c-.039-.281-.07-.495-.1-.7a.665.665,0,0,0-.025-.149v-.053c-.094-.542-.2-1.076-.33-1.585v-.065c-.058-.232-.123-.495-.206-.734l-.058-.172-.012-.036-.016-.049c-.024-.071-.048-.149-.073-.214l-.025-.076c-.018-.053-.036-.105-.056-.157l-.018-.052a1.082,1.082,0,0,0-.064-.162.616.616,0,0,0-.048-.11v-.034a.743.743,0,0,0-.049-.12,1,1,0,0,0-.037-.094l-.034-.1-.013-.033v-.009c-.149-.383-.3-.767-.493-1.209a.6.6,0,0,0-.061-.149c-.171-.388-.354-.771-.542-1.139l-.015-.03v-.021c-.126-.241-.253-.468-.38-.7a7.3,7.3,0,0,0-.446-.729l-.019-.028-.16-.248a.655.655,0,0,0-.059-.086c-.3-.453-.64-.917-1.028-1.414l-.009-.009c-.2-.26-.411-.514-.643-.795a1.1,1.1,0,0,0-.123-.149l-.019-.021-.01-.01-.022-.025-.025-.027-.046-.052-.022-.025-.028-.03-.071-.08-.024-.027-.015-.016c-.3-.336-.627-.677-.969-1.015l-.033-.033c-.3-.3-.6-.578-.924-.856l-.021-.019-.107-.092h-.007l-.043-.037-.065-.055-.193-.16-.027-.022c-.275-.221-.557-.446-.865-.671a.971.971,0,0,0-.085-.064c-.416-.306-.866-.606-1.376-.921l-.018-.01-.325-.2-.039-.024a21.47,21.47,0,0,0-2.71-1.35c-.446-.183-.954-.391-1.486-.553l-.052-.015-.083-.025-.082-.027-.031-.009-.027-.009-.065-.019-.064-.021-.079-.024-.077-.024L220.406,93h-.012c-.284-.082-.562-.157-.9-.244l-.049-.015-.278-.067-.046-.012-.071-.016-.053-.012-.039-.01c-.4-.088-.826-.166-1.258-.232l-.076-.01-.077-.01-.582-.079h.059c-.34-.045-.707-.091-1.073-.126l.013.016a.527.527,0,0,0-.149-.03c0,.009,0,.013.018.016a2.639,2.639,0,0,0-.364-.043h-.037q-.238-.013-.477-.022h-.72" transform="translate(-70.84 0)"/><path class="a" d="M189.67,111.1h-.652l-.57.007h-.079l-.49.009h-.163l-.615.018h-.04l-.573.021H186.4l-.575.025h-.013q-.358.016-.716.037h-.149l-.269.016h-.253l-.575.04h-.091l-.41.031h-.027l-.2.016h-.015l-.572.049h-.04c-1.307.12-2.628.272-3.925.446a.358.358,0,0,0-.1.013l-.48.068h-.071a.354.354,0,0,0-.089.013l-.174.025h-.019l-.149.022-.212.033a.382.382,0,0,0-.08.012l-.564.091a.339.339,0,0,0-.073.012l-.477.079h-.016c-.694.12-1.38.247-2.04.376-.362.071-.761.149-1.254.266-.149.033-.3.07-.446.108l-.181.046a.3.3,0,0,0-.07.028h-.016l-.181.045a.287.287,0,0,0-.048.013l-.048.01h-.01l-.068.018-.027.009h-.073a.456.456,0,0,0-.135.051l-.034.025-.079.018-.4.094h-.037l-.119.028-.046.01h-.01c-.138.033-.276.067-.414.1l-.458.111-.036.007-.062.015a.613.613,0,0,0-.079.021.27.27,0,0,0-.149.111h-.019a1,1,0,0,1-.107.025h-.1a.4.4,0,0,0-.105.015.264.264,0,0,0-.105.059.22.22,0,0,0-.024.025.113.113,0,0,0-.068.053.178.178,0,0,0-.015.135.223.223,0,0,0-.019.086.3.3,0,0,0,.059.174l.021.027a.345.345,0,0,0-.062.2.34.34,0,0,0,.053.3l.034.056.034.056.019.033.015.022c.417.7.813,1.423,1.174,2.151.235.478.455.957.655,1.42a.315.315,0,0,0,.031.074l.016.04.015.036a30.143,30.143,0,0,1,1.561,4.855c.068.3.134.6.195.912v.113c.067.348.129.7.183,1.05a.391.391,0,0,0,.01.074.642.642,0,0,0,.015.091v.065l.013.092a.341.341,0,0,0,.012.085l.024.175c.064.486.119.985.16,1.486.018.218.034.446.048.676q.016.272.028.544c0,.149.012.3.016.446v1.491c0,.1,0,.195-.007.288v.009a.107.107,0,0,0,0,.025v.116a.138.138,0,0,0-.025.088v.068a.35.35,0,0,0,.007.088.389.389,0,0,0,.015.073.222.222,0,0,0,.024.052v.01a.373.373,0,0,0,.009.079.23.23,0,0,0,.021.05.193.193,0,0,0,.064.064l.016.009a.189.189,0,0,0-.018.071.166.166,0,0,0,.048.117.181.181,0,0,0,.117.049h.034a.309.309,0,0,0,.175-.058.362.362,0,0,0,.067-.007.205.205,0,0,0,.088-.052.149.149,0,0,0,.037-.045,1.355,1.355,0,0,1,.214-.055,2.116,2.116,0,0,0,.256-.053c.071-.021.149-.045.224-.074a.357.357,0,0,0,.178.046.383.383,0,0,0,.089-.01l.068-.016.082-.019h.018l.07-.015h.012l.609-.14c1.081-.242,2.193-.461,3.3-.648l.474-.077.108-.016.2-.031a.379.379,0,0,0,.076-.01l.091-.015.062-.009.128-.019.128-.019a.325.325,0,0,0,.085-.013h.086l.446-.062h.105a64.39,64.39,0,0,1,7.35-.579h.765c1.741,0,3.492.071,5.208.214.358.03.709.062,1.074.1.594.061,1.208.134,1.827.214h.01c.646.089,1.291.187,1.916.3,1.445.244,2.915.545,4.366.891l.079.019.036.009.223.055.524.134.486.128c1.062.285,2.148.609,3.227.961l.181.059.1.031.137.045.3.1.594.208c1.116.4,2.228.826,3.307,1.278.406.172.8.345,1.177.512h.01c1.444.651,2.867,1.356,4.231,2.095s2.692,1.533,4,2.377l.019.012.019.012c1.142.743,2.279,1.533,3.378,2.352l.33.248.517.4c.671.524,1.346,1.07,2,1.621q.333.282.661.569c1.337,1.169,2.641,2.407,3.873,3.677a63.542,63.542,0,0,1,4.471,5.179q.319.419.634.841c1.028,1.393,2.013,2.846,2.927,4.32.94,1.517,1.855,3.166,2.72,4.9.532,1.077,1.04,2.184,1.512,3.29.56,1.337,1.081,2.7,1.551,4.075.423,1.237.816,2.525,1.188,3.949a60.794,60.794,0,0,1,1.337,6.425.326.326,0,0,0,.01.071l.031.2c.042.284.08.557.117.83.149,1.162.276,2.341.365,3.506.149,2.089.208,4.194.157,6.258a61.35,61.35,0,0,1-.521,6.568c-.132.963-.3,1.949-.472,2.934-.263,1.4-.579,2.822-.942,4.219-.321,1.221-.68,2.445-1.071,3.638q-.125.38-.256.759c-.446,1.286-.939,2.582-1.469,3.849l.012-.015c-.547,1.273-1.13,2.525-1.737,3.742-.539,1.073-1.129,2.157-1.8,3.319a61.552,61.552,0,0,1-4.44,6.581c-.9,1.156-1.855,2.3-2.84,3.4-.909,1.015-1.913,2.059-2.987,3.1a63.617,63.617,0,0,1-5.2,4.5,57.939,57.939,0,0,1-4.867,3.4,59.7,59.7,0,0,1-5.3,2.959h-.028c-1.047.515-2.135,1.013-3.23,1.486l.039-.01c-.446.183-.807.328-1.119.446a62.622,62.622,0,0,1-7.327,2.395,61.31,61.31,0,0,1-7.01,1.376h-.068a63.821,63.821,0,0,1-8.306.545h-.036a61.612,61.612,0,0,1-7.909-.53c-1.252-.171-2.525-.38-3.766-.625-1.272-.251-2.58-.557-4-.937a61.063,61.063,0,0,1-7.769-2.674c-1.145-.487-2.313-1.025-3.469-1.6-1.2-.594-2.426-1.263-3.738-2.032a61.709,61.709,0,0,1-6.428-4.332l.022.025c-1.04-.817-2.057-1.662-3.027-2.516s-1.912-1.747-2.937-2.769A61.84,61.84,0,0,1,141,228.025v-.007L140.98,228l-.031-.04v.012c-.707-.933-1.387-1.878-2.025-2.806-.716-1.04-1.422-2.158-2.156-3.4a61.141,61.141,0,0,1-3.625-7.206c-.579-1.388-1.116-2.808-1.6-4.223-.446-1.312-.845-2.674-1.23-4.151a61.407,61.407,0,0,1-1.371-7.056v-.022l-.007-.056v.019c-.192-1.506-.337-3.026-.426-4.514V194.5c-.036-.637-.062-1.275-.082-1.894-.018-.654-.025-1.322-.024-1.986q0-.508.012-1.016c.025-1.139.082-2.308.172-3.479.025-.331.056-.679.092-1.061.009-.1.019-.2.03-.3.065-.634.138-1.269.218-1.884v-.064c.089-.649.189-1.306.3-1.955.052-.31.113-.657.186-1.055v-.021c.229-1.22.5-2.451.8-3.663l.089-.354q.082-.312.165-.624c.288-1.065.611-2.142.957-3.2l.14-.417.082-.241.033-.1c.059-.172.119-.345.18-.517.334-.939.694-1.884,1.073-2.808a.364.364,0,0,0,.019-.042.117.117,0,0,1,.013-.036.347.347,0,0,0,.027-.067l.129-.312v-.036q.128-.3.258-.594l.175-.4c.368-.827.753-1.647,1.145-2.438l.009-.016.009-.019V163.9l.058-.116.245-.483.181-.352.181-.346q.171-.322.345-.643c.379-.7.775-1.393,1.178-2.069a.331.331,0,0,0,.039-.1l.021-.031a.339.339,0,0,0,.059-.07.12.12,0,0,0,.012-.024v-.013a.3.3,0,0,0,.034-.1.288.288,0,0,0,.039-.079v-.016h0v-.033h0a.182.182,0,0,0,.015-.031.157.157,0,0,0,.019-.045.2.2,0,0,0,0-.094.121.121,0,0,0-.021-.055.171.171,0,0,0-.062-.062.1.1,0,0,0-.043-.019.2.2,0,0,0-.059-.009h-.107a.264.264,0,0,0-.149-.1c-.365-.089-.743-.192-1.135-.306-.113-.033-.224-.07-.337-.105l-.037-.012-.175-.056-.175-.056-.058-.018-.361-.116c-.79-.26-1.551-.542-2.258-.841-.891-.38-1.694-.764-2.45-1.174l-.024-.015-.212-.119-.027-.015-.077-.043c-.189-.105-.377-.211-.564-.319-.318-.186-.643-.383-.967-.594-.7-.446-1.408-.937-2.1-1.459a.085.085,0,0,0-.021-.013l-.175-.134-.024-.018c-.1-.077-.2-.149-.3-.235a36.3,36.3,0,0,1-2.772-2.582l-.018-.019-.094-.1-.046-.048-.043-.046-.1-.1-.137-.14c-.062-.062-.123-.125-.184-.189l-.34-.361-.015.015-.012.015a1.246,1.246,0,0,1-.149.149l-.051.048q-.065.062-.125.129l-.007.009c-.021.025-.04.049-.061.071l.033.043.042.05h-.036a.159.159,0,0,0-.088.025.227.227,0,0,0-.051.045.721.721,0,0,1-.088.16,1.4,1.4,0,0,1-.212.241.168.168,0,0,0,.037.149.08.08,0,0,0-.019.022l-.03.052-.08.137a.256.256,0,0,0-.149.111v.009a2.971,2.971,0,0,0-.224.324,2.377,2.377,0,0,0-.149.359.211.211,0,0,0,0,.126c-.092.156-.183.315-.275.474-.068.119-.134.239-.2.358l-.062.114a.162.162,0,0,0-.05.058l-.276.511a.116.116,0,0,0-.019.028l-.275.518a.148.148,0,0,0-.015.024c-.089.168-.175.336-.264.5a.178.178,0,0,0-.027.039c-.3.578-.615,1.208-.969,1.931-.3.6-.594,1.231-.906,1.916a.149.149,0,0,0-.021.033q-.122.27-.241.542l-.012.022q-.119.272-.236.545a.1.1,0,0,0-.012.021q-.122.284-.242.569a.554.554,0,0,0-.027.056c-.562,1.337-1.086,2.674-1.561,3.986a.335.335,0,0,0-.024.053q-.1.275-.195.551a.231.231,0,0,0-.013.034l-.068.2c-.042.12-.083.241-.123.361a.288.288,0,0,0-.012.028q-.1.282-.189.566a.169.169,0,0,0-.009.024c-.184.562-.371,1.144-.572,1.783-.269.857-.514,1.729-.674,2.31a.28.28,0,0,0-.039.085q-.073.264-.149.53a.281.281,0,0,0-.028.071c-.051.187-.1.376-.149.564a.325.325,0,0,0-.015.042l-.036.149q-.055.218-.108.438a.037.037,0,0,1-.007.027c-.01.04-.021.082-.03.123-.187.771-.336,1.413-.468,2.017-.149.661-.287,1.365-.435,2.154v.01c-.036.181-.068.362-.1.544v.039l-.018.1c-.03.171-.061.342-.089.514v.048q-.086.507-.165,1.015v.048q-.058.37-.111.743v.04a.7.7,0,0,1-.015.11c-.149,1.08-.281,2.095-.389,3.1a.344.344,0,0,0-.007.071q-.021.2-.04.4v.013c0,.062-.012.125-.018.187v.037q-.027.272-.051.544v.1q-.027.3-.05.6v.037l-.009.108c0,.079-.012.156-.018.233-.113,1.53-.184,3.085-.211,4.623v.649a.235.235,0,0,0,0,.03v1.078c0,.486.009.97.019,1.439a.282.282,0,0,0,0,.042c.016.634.04,1.275.068,1.9a.3.3,0,0,0,0,.048q.03.594.065,1.188a.433.433,0,0,0,0,.046c.065,1.015.149,2.037.248,3.036s.226,2.031.4,3.281c.053.37.11.743.172,1.148a.184.184,0,0,0,0,.04c.016.11.034.221.052.331a.11.11,0,0,0,0,.024q.067.419.14.839a.2.2,0,0,0,0,.027c.221,1.267.475,2.552.756,3.819v.015c.034.149.067.3.1.446l.007.033v.039a.467.467,0,0,0,.022.1.088.088,0,0,0,0,.018l.013.059.077.328.05.212a.2.2,0,0,0,0,.021q.061.255.125.51v.015c.407,1.634.878,3.305,1.4,4.951a.161.161,0,0,0,0,.022l.073.227v.012l.019.061v.013c.12.373.239.732.364,1.1l.015.042.015.042a.116.116,0,0,0,.013.036c.5,1.447,1.04,2.892,1.612,4.295l.013.033.015.033.058.149.123.3.015.034.013.033c.312.743.625,1.465.931,2.147.345.768.729,1.585,1.181,2.5a.18.18,0,0,0,.015.033l.258.52a.294.294,0,0,0,.016.037c.46.915.946,1.838,1.444,2.742.453.826.954,1.692,1.529,2.646a.24.24,0,0,0,.016.031l.308.505a.167.167,0,0,0,.012.022l.053.088.022.036.022.036.111.18.1.166.012.021.205.327v.01c.7,1.1,1.425,2.188,2.167,3.243l.007.012.126.18.04.055.01.015c.726,1.021,1.486,2.034,2.248,3.013.8,1.028,1.682,2.092,2.687,3.249l.009.009c.948,1.081,1.931,2.154,2.94,3.189l.016.016.53.539.015.015.036.036.037.037.021.022.41.411.022.024c.594.585,1.188,1.156,1.763,1.7.472.446.939.863,1.337,1.215l.022.022c.31.276.606.535.9.79l.019.019.29.248.171.149.391.33.025.019c1.122.937,2.279,1.855,3.438,2.73l.033.025.04.03.068.052.022.016.024.018.016.012.015.01c.355.264.7.514,1.04.764l.016.01c1.188.851,2.377,1.661,3.54,2.405h.012l.116.074.116.074.016.01.5.315.012.009.391.242.114.07a.115.115,0,0,0,.024.016l.5.3c.594.362,1.215.726,1.879,1.108s1.266.72,1.842,1.04l.034.021c.8.423,1.576.826,2.32,1.188.891.446,1.848.891,2.941,1.371l.043.018.027.012c.342.149.676.3.992.429l.071.03c1.731.731,3.29,1.337,4.769,1.841l.033.009.055.019.055.019a.33.33,0,0,0,.077.036l.529.154a.379.379,0,0,0,.067.03l.553.186.037.015c.666.221,1.346.437,2.08.66.654.2,1.359.4,2.228.631l.483.128h.025l.487.125H170l.434.108.037.007q.327.082.655.159h.03c.475.111.928.215,1.35.309.9.2,1.793.37,2.467.495l.1.019.183.034h.025q.458.083.915.162h.025c2.08.354,4.228.63,6.365.823h.267l.367.03h.033l.51.04h.016c1.523.11,3.069.18,4.605.207h.033c.432,0,.873.01,1.313.01h.64c1.379-.015,2.658-.055,3.908-.125h.027c1.215-.071,2.432-.168,3.616-.285.891-.089,1.833-.2,2.886-.348a.355.355,0,0,0,.091-.012,81.106,81.106,0,0,0,12.169-2.674c.879-.267,1.829-.578,2.9-.952,1.188-.411,2.4-.866,3.61-1.352,1.956-.781,3.923-1.668,6.013-2.711l.025-.01h.01l.105-.053.091-.046h.013c1.024-.521,2.054-1.073,3.066-1.634s2.037-1.177,3.161-1.876c1.919-1.2,3.888-2.554,5.847-4.033a81.455,81.455,0,0,0,10.7-9.732c1.589-1.722,3.12-3.544,4.565-5.416.636-.827,1.266-1.679,1.875-2.533.691-.967,1.395-2.013,2.155-3.2,1.154-1.8,2.294-3.754,3.384-5.819,1.077-2.037,2.118-4.256,3.094-6.6A79.055,79.055,0,0,0,267,212a.109.109,0,0,0,0-.018c.3-1.11.578-2.242.83-3.365s.495-2.341.734-3.7c.351-1.985.633-4.1.841-6.294a80.5,80.5,0,0,0,.215-12.054v-.053q-.019-.328-.04-.657c0-.11-.015-.217-.022-.322v-.028c-.062-.882-.149-1.792-.235-2.7-.088-.857-.2-1.772-.342-2.8a.357.357,0,0,0-.013-.092c-.279-1.98-.636-3.978-1.059-5.942-.458-2.112-1.04-4.308-1.716-6.52v-.01l-.04-.129-.01-.034-.01-.034v-.019c-.324-1.029-.67-2.062-1.028-3.069-.333-.936-.713-1.931-1.162-3.045-.7-1.744-1.509-3.544-2.4-5.348v-.015l-.051-.1-.046-.094v-.013c-.891-1.783-1.846-3.54-2.848-5.229l-.009-.015-.012-.018v-.012c-.789-1.319-1.615-2.62-2.456-3.862s-1.792-2.562-2.883-3.984a78.006,78.006,0,0,0-6.119-7.049l-.031-.027c-.667-.682-1.327-1.337-1.961-1.931-.7-.671-1.469-1.371-2.411-2.2-1.426-1.26-2.931-2.5-4.473-3.689a.361.361,0,0,0-.077-.062c-.3-.221-.594-.446-.911-.683a.362.362,0,0,0-.068-.053c-1.3-.957-2.643-1.891-3.993-2.776a.257.257,0,0,0-.033-.022c-.777-.5-1.579-1-2.386-1.486-.878-.529-1.823-1.07-2.889-1.652-1.826-1-3.739-1.931-5.847-2.873a80.085,80.085,0,0,0-11.421-4.054H210.6c-2.032-.547-4.093-1.018-6.125-1.4h-.015c-.617-.113-1.24-.223-1.852-.322h-.016l-.358-.056h-.021c-1.353-.209-2.716-.389-4.051-.532a.4.4,0,0,0-.077-.009h-.14c-.594-.059-1.174-.113-1.745-.16h-.027l-.12-.009-.12-.009h-.01c-1.416-.107-2.839-.178-4.232-.212h-.022l-.489-.01h-.016q-.389,0-.777-.009h-.67Z" transform="translate(0 -16.263)"/></g></svg>